<svg width="424" height="372" viewBox="0 0 424 372" fill="none" xmlns="http://www.w3.org/2000/svg">
<path d="M0.00302979 184.265C0.582045 81.921 84.0178 -0.575974 186.362 0.0030298C288.706 0.582054 371.203 84.0178 370.624 186.362L369.973 301.383C308.644 222.224 223.276 251.562 186.849 289.697C299.979 247.736 365.076 324.009 423.789 371.979L184.265 370.624C81.921 370.045 -0.575974 286.609 0.00302979 184.265ZM86.2822 183.84C130.353 189.293 166.16 227.09 170.543 271.365C181.026 227.287 212.781 192.552 257.445 188.271C212.908 182.728 177.263 136.686 172.816 97.3235C162.333 141.402 130.481 179.468 86.2822 183.84Z" fill="#7C3AED"/>
</svg>
