<svg width="774" height="137" viewBox="0 0 774 137" fill="none" xmlns="http://www.w3.org/2000/svg">
<path d="M83.5986 0C106.066 0 122.785 5.74745 134.28 16.7197C145.775 27.9532 151.522 44.1503 151.522 65.0498V136.37H42.583C28.7372 136.37 18.2875 132.713 10.9727 125.398C3.65777 118.084 0 108.417 0 96.3994C6.52731e-05 83.8598 3.65788 74.1942 10.9727 66.6182C18.2875 59.3033 28.737 55.6455 42.583 55.6455H118.867C117.822 48.0694 114.949 41.7991 110.246 37.0967C104.237 31.088 95.0935 28.2148 83.0762 28.2148H35.791C20.2085 28.2148 7.57617 15.5825 7.57617 0H83.5986ZM286.172 0C286.172 16.4482 272.838 29.7822 256.39 29.7822H224.518C213.023 29.7823 203.357 33.4396 195.52 40.4932C187.943 47.808 184.024 56.6903 184.024 67.9238C184.024 79.1574 187.943 88.3013 195.52 95.6162C203.357 102.931 213.023 106.327 224.518 106.327H256.39C272.838 106.327 286.172 119.661 286.172 136.109H225.04C214.59 136.109 204.924 134.541 196.042 131.406C186.899 128.01 179.061 123.308 172.53 117.3C165.999 111.03 161.035 103.714 157.378 95.3545C153.721 86.7334 151.892 77.5899 151.892 67.9238C151.892 57.9965 153.72 49.1143 157.378 40.4932C161.035 32.1333 165.999 24.8182 172.53 18.8096C179.061 12.8011 186.899 8.36002 196.042 4.96387C204.924 1.82897 214.59 4.98461e-05 225.04 0H286.172ZM533.22 0C543.408 0 553.074 1.82898 562.218 4.96387C571.1 8.36003 578.938 12.801 585.469 18.8096C592 24.8182 597.225 32.1333 600.883 40.4932C604.54 49.1142 606.369 57.9966 606.369 67.9238C606.369 77.5898 604.54 86.7335 600.883 95.3545C597.225 103.714 592 111.03 585.469 117.3C578.938 123.308 571.1 128.01 562.218 131.406C553.074 134.541 543.408 136.109 533.22 136.109H514.148C503.699 136.109 494.033 134.541 485.15 131.406C476.007 128.01 468.17 123.308 461.639 117.3C455.108 111.03 450.144 103.714 446.486 95.3545C442.829 86.7334 441 77.5899 441 67.9238C441 57.9965 442.829 49.1143 446.486 40.4932C450.144 32.1333 455.108 24.8182 461.639 18.8096C468.17 12.8011 476.007 8.36002 485.15 4.96387C494.033 1.82897 503.699 4.98461e-05 514.148 0H533.22ZM705.481 0C727.687 6.31896e-05 744.407 5.74794 756.163 16.9814C767.658 28.2149 773.405 44.1506 773.405 65.0498V136.109H741.011V64.7891C741.011 53.5555 737.875 44.9344 731.605 38.9258C725.336 32.9171 716.453 29.7822 704.697 29.7822H681.708C669.952 29.7822 661.07 32.9172 654.8 38.9258C648.53 44.9344 645.395 53.5555 645.395 64.7891V136.109H613V65.0498C613 44.1505 618.748 28.2149 630.242 16.9814C641.998 5.7479 658.718 2.1065e-05 680.924 0H705.481ZM327.686 23.873C327.686 32.2476 331.282 40.3902 337.515 46.4385C343.747 52.4866 351.898 55.7432 360.768 55.7432H406.795L406.554 0H436.76L437 84.3564L436.761 85.752C435.802 113.9 412.548 136 383.781 136H297.24C297.24 119.683 310.468 106.456 326.784 106.456H383.781C395.048 106.456 404.637 98.3143 406.555 87.3809V85.5195H360.768C325.768 85.5195 297.24 57.8367 297.24 23.873L297 0H327.445L327.686 23.873ZM49.6367 76.8066C43.3668 76.8066 38.6642 78.3738 35.5293 81.5088C32.3945 84.3825 30.8272 88.5623 30.8271 93.7871C30.8271 99.0119 32.3945 103.192 35.5293 106.065C38.6642 109.2 43.3666 110.768 49.375 110.769H119.39V76.8066H49.6367ZM513.626 29.7822C502.131 29.7823 492.466 33.4397 484.89 40.4932C477.052 47.808 473.133 56.6903 473.133 67.9238C473.133 79.1574 477.052 88.3013 484.89 95.6162C492.466 102.931 502.131 106.327 513.626 106.327H533.22C544.714 106.327 554.38 102.931 562.218 95.6162C569.794 88.3013 573.713 79.1574 573.713 67.9238C573.713 56.6903 569.794 47.808 562.218 40.4932C554.38 33.4396 544.714 29.7822 533.22 29.7822H513.626Z" fill="#2F2F2F"/>
</svg>
